<svg width="30" height="30" viewBox="0 0 30 30" fill="none" xmlns="http://www.w3.org/2000/svg">
<rect width="30" height="30" fill="white"/>
<path d="M26 7.71429H4C3.45 7.71429 3 7.10357 3 6.35714C3 5.61071 3.45 5 4 5H26C26.55 5 27 5.61071 27 6.35714C27 7.10357 26.55 7.71429 26 7.71429ZM26 15.8571H4C3.45 15.8571 3 15.2464 3 14.5C3 13.7536 3.45 13.1429 4 13.1429H26C26.55 13.1429 27 13.7536 27 14.5C27 15.2464 26.55 15.8571 26 15.8571ZM26 24H4C3.45 24 3 23.3893 3 22.6429C3 21.8964 3.45 21.2857 4 21.2857H26C26.55 21.2857 27 21.8964 27 22.6429C27 23.3893 26.55 24 26 24Z" fill="black"/>
</svg>
