<svg width="30" height="30" viewBox="0 0 30 30" fill="none" xmlns="http://www.w3.org/2000/svg">
<path d="M7.02539 19.6934C5.2207 19.6934 3.75 21.1641 3.75 22.9629C3.75 24.7676 5.2207 26.2207 7.02539 26.2207C8.83594 26.2207 10.3008 24.7617 10.3008 22.9629C10.3008 21.1641 8.83594 19.6934 7.02539 19.6934Z" fill="#DE9949"/>
<path d="M3.75 11.25V15.9316C6.5625 15.9316 9.26367 16.7637 11.25 18.75C13.2363 20.7363 14.0625 23.4316 14.0625 26.25H18.75C18.75 18.0527 11.9531 11.25 3.75 11.25Z" fill="#DE9949"/>
<path d="M3.75 3.75V8.43164C13.7695 8.43164 21.5566 16.2246 21.5566 26.25H26.25C26.25 13.8457 16.1719 3.75 3.75 3.75Z" fill="#DE9949"/>
</svg>
