<svg width="30" height="30" viewBox="0 0 30 30" fill="none" xmlns="http://www.w3.org/2000/svg">
<path d="M20.1468 17.3234C20.8076 17.3234 21.4591 17.3234 22.1089 17.3234C22.1089 20.8825 22.1089 24.4401 22.1089 28C15.7327 28 9.36934 28 3 28C3 24.4394 3 20.8855 3 17.3234C3.65064 17.3234 4.30128 17.3234 4.96123 17.3234C4.96123 20.3038 4.96123 23.2813 4.96123 26.27C10.0225 26.27 15.0753 26.27 20.1451 26.27C20.1468 23.285 20.1468 20.3083 20.1468 17.3234Z" fill="#828282"/>
<path d="M14.5584 5.376C16.7346 8.2071 18.9056 11.0299 21.0792 13.8573C21.7662 13.4407 22.4423 13.0317 23.1217 12.6211C20.9422 9.78702 18.7728 6.96643 16.6009 4.14059C15.9172 4.55339 15.2438 4.96094 14.5584 5.376ZM20.6782 14.156C17.348 12.414 14.033 10.6794 10.7113 8.94114C10.2891 9.57536 9.8745 10.1983 9.454 10.8303C12.7757 12.5678 16.0932 14.3031 19.4226 16.0451C19.8448 15.4094 20.2611 14.785 20.6782 14.156ZM24.0194 2C23.2029 2.12609 22.4033 2.24994 21.5835 2.37528C22.2434 5.75203 22.9051 9.11602 23.5633 12.4883C24.3857 12.3622 25.1895 12.2376 26.0001 12.113C25.3393 8.73248 24.6802 5.36774 24.0194 2ZM19.2187 16.6651C15.4874 15.7734 11.7706 14.8885 8.04357 13.9991C7.82867 14.7062 7.6163 15.4064 7.40055 16.1172C11.1309 17.0074 14.8512 17.893 18.5765 18.7824C18.7939 18.0709 19.0055 17.3706 19.2187 16.6651ZM18.1704 22.3431C14.3139 22.3431 10.4685 22.3431 6.61792 22.3431C6.61792 23.0779 6.61792 23.8006 6.61792 24.5234C10.4752 24.5234 14.3207 24.5234 18.1704 24.5234C18.1704 23.7894 18.1704 23.0651 18.1704 22.3431ZM18.4597 19.5247C14.6126 19.211 10.779 18.8958 6.93689 18.5835C6.8599 19.3168 6.78375 20.0381 6.7076 20.7676C10.5548 21.0814 14.3892 21.3951 18.2313 21.7088C18.3083 20.9748 18.3827 20.2535 18.4597 19.5247Z" fill="#F2994A"/>
</svg>
