<svg width="30" height="30" viewBox="0 0 30 30" fill="none" xmlns="http://www.w3.org/2000/svg">
<g clip-path="url(#clip0)">
<path d="M21.3833 17.6808C22.1303 17.6808 22.8668 17.6808 23.6013 17.6808C23.6013 21.7875 23.6013 25.8924 23.6013 30C16.3935 30 9.20012 30 2 30C2 25.8916 2 21.7909 2 17.6808C2.73551 17.6808 3.47101 17.6808 4.21704 17.6808C4.21704 21.1198 4.21704 24.5553 4.21704 28.0038C9.93849 28.0038 15.6504 28.0038 21.3814 28.0038C21.3833 24.5596 21.3833 21.125 21.3833 17.6808Z" fill="#828282"/>
<path d="M15.066 3.89538C17.5259 7.16203 19.9802 10.4192 22.4373 13.6815C23.2139 13.2008 23.9781 12.7288 24.7461 12.2551C22.2823 8.98502 19.83 5.73049 17.3748 2.46991C16.602 2.94622 15.8407 3.41647 15.066 3.89538ZM21.9839 14.0262C18.2194 12.0161 14.472 10.0147 10.717 8.00901C10.2397 8.7408 9.77108 9.4596 9.29573 10.1888C13.0507 12.1936 16.8009 14.1959 20.5646 16.2059C21.0418 15.4724 21.5124 14.7519 21.9839 14.0262ZM25.7609 0C24.838 0.145492 23.9341 0.288387 23.0073 0.433013C23.7533 4.32926 24.5013 8.21079 25.2454 12.1018C26.1751 11.9564 27.0837 11.8126 28 11.6688C27.253 7.76825 26.5079 3.88586 25.7609 0ZM20.3341 16.9213C16.1161 15.8924 11.9145 14.8714 7.70133 13.8452C7.45839 14.661 7.21833 15.469 6.97443 16.2891C11.1914 17.3162 15.3969 18.3381 19.6081 19.3643C19.8539 18.5433 20.093 17.7353 20.3341 16.9213ZM19.149 23.4728C14.7895 23.4728 10.4425 23.4728 6.08972 23.4728C6.08972 24.3206 6.08972 25.1546 6.08972 25.9886C10.4502 25.9886 14.7972 25.9886 19.149 25.9886C19.149 25.1416 19.149 24.3059 19.149 23.4728ZM19.4761 20.2208C15.1272 19.8588 10.7935 19.4951 6.4503 19.1348C6.36326 19.9809 6.27718 20.8132 6.1911 21.655C10.5401 22.017 14.8747 22.379 19.2179 22.741C19.3049 21.894 19.3891 21.0618 19.4761 20.2208Z" fill="#F2994A"/>
</g>
<defs>
<clipPath id="clip0">
<rect width="30" height="30" fill="white"/>
</clipPath>
</defs>
</svg>
