<svg width="32" height="32" viewBox="0 0 32 32" fill="none" xmlns="http://www.w3.org/2000/svg">
<path fill-rule="evenodd" clip-rule="evenodd" d="M23.448 27.746C23.8236 28.0082 24.3078 28.0738 24.7394 27.9128C25.1711 27.7506 25.4884 27.3872 25.5841 26.9468C26.5979 22.2502 29.0572 10.3626 29.98 6.09037C30.05 5.76837 29.9333 5.43372 29.6767 5.21867C29.42 5.00362 29.0642 4.94152 28.7469 5.05767C23.8551 6.84247 8.79031 12.4142 2.63278 14.6602C2.24196 14.8028 1.98763 15.1731 2.00046 15.579C2.01446 15.9861 2.29212 16.3392 2.69228 16.4576C5.45372 17.2718 9.07847 18.4046 9.07847 18.4046C9.07847 18.4046 10.7724 23.4473 11.6556 26.0118C11.7664 26.3338 12.0219 26.5868 12.3591 26.6742C12.6951 26.7605 13.0544 26.6696 13.3052 26.4362C14.7238 25.116 16.9171 23.0747 16.9171 23.0747C16.9171 23.0747 21.0844 26.0866 23.448 27.746V27.746ZM10.6033 17.7675L12.5621 24.1362L12.9972 20.1031C12.9972 20.1031 20.5652 13.3745 24.8794 9.53923C25.0054 9.42653 25.0229 9.23793 24.9179 9.10568C24.8141 8.97343 24.6228 8.94238 24.4793 9.03208C19.4791 12.1796 10.6033 17.7675 10.6033 17.7675Z" fill="#56CCF2"/>
</svg>
